<?xml version="1.0" encoding="UTF-8"?>
<svg id="_圖層_1" xmlns="http://www.w3.org/2000/svg" version="1.1" viewBox="0 0 141.7 141.7">
  <!-- Generator: Adobe Illustrator 29.0.0, SVG Export Plug-In . SVG Version: 2.1.0 Build 186)  -->
  <defs>
    <style>
      .st0 {
        fill: #21baff;
      }
    </style>
  </defs>
  <path class="st0" d="M112.8,123H29.2c-4.3,0-8.2-2.9-8.9-7.3-.5-3.4,0-7,0-10.4V34.9c0-3.6-.7-8.6,1-11.9,2.8-5.2,8.5-4.5,13.5-4.5h76c1.7,0,3.4,0,5,.6,6,2.3,5.5,8.2,5.5,13.4v46.2c0,11.9.2,23.8,0,35.6,0,4.9-3.7,8.6-8.6,8.8-1.9,0-1.9,2.9,0,2.8,6.2-.2,11.2-5,11.4-11.1V27.7c0-7.1-5.3-12-12.4-12H29.5c-7,0-12.1,5.1-12.1,12.2v84.3c0,1.2,0,2.5,0,3.7.7,5.7,5.6,9.8,11.3,9.9,11.9.3,23.8,0,35.7,0h48.2c1.9,0,1.9-2.8,0-2.8h0Z"/>
  <path class="st0" d="M18.9,38.3h103.9c1.9,0,1.9-2.8,0-2.8H18.9c-1.9,0-1.9,2.8,0,2.8h0Z"/>
  <path class="st0" d="M46.2,27.1h0v-.4.2c0,0,0-.2.2-.4,0,.2.2-.2,0,0,0,0,.3-.2,0,0,0,0,.2,0,.4-.2h-.2.4,0,.4-.2c0,0,.2,0,.4.2-.2,0,.2.2,0,0,0,0,.2.3,0,0,0,0,0,.2.2.4v-.2.4h0v.3-.2c0,0,0,.2-.2.4,0-.2-.2.2,0,0,0,0-.3.2,0,0,0,0-.2,0-.4.2h.2-.4,0-.4.2c0,0-.2,0-.4-.2.2,0-.2-.2,0,0,0,0-.2-.3,0,0,0,0,0-.2-.2-.4v.2-.4h0c0,.7.7,1.5,1.4,1.4.7,0,1.5-.7,1.4-1.4,0-.6-.2-1-.6-1.4-.4-.4-.9-.6-1.4-.6-1.1,0-2,.9-2,2s.9,2,2,2,1-.2,1.4-.6.6-.8.7-1.4c0-.7-.7-1.5-1.4-1.4-.8,0-1.4.7-1.4,1.4h0Z"/>
  <path class="st0" d="M38.4,27.1h0v-.4.2c0,0,0-.2.2-.4,0,.2.2-.2,0,0,0,0,.3-.2,0,0,0,0,.2,0,.4-.2h-.2.4,0,.4-.2c0,0,.2,0,.4.2-.2,0,.2.2,0,0,0,0,.2.3,0,0,0,0,0,.2.2.4v-.2.4h0v.3-.2c0,0,0,.2-.2.4,0-.2-.2.2,0,0,0,0-.3.2,0,0,0,0-.2,0-.4.2h.2-.4,0-.4.2c0,0-.2,0-.4-.2.2,0-.2-.2,0,0,0,0-.2-.3,0,0,0,0,0-.2-.2-.4v.2-.4h0c0,.7.7,1.5,1.4,1.4.7,0,1.5-.7,1.4-1.4,0-.6-.2-1-.6-1.4-.4-.4-.9-.6-1.4-.6-1.1,0-2,.9-2,2s.9,2,2,2,1-.2,1.4-.6.6-.8.7-1.4c0-.7-.7-1.5-1.4-1.4-.8,0-1.4.7-1.4,1.4h0Z"/>
  <path class="st0" d="M30.6,27.1h0v-.4.2c0,0,0-.2.2-.4,0,.2.2-.2,0,0,0,0,.3-.2,0,0,0,0,.2,0,.4-.2h-.2.4,0,.4-.2c0,0,.2,0,.4.2-.2,0,.2.2,0,0,0,0,.2.3,0,0,0,0,0,.2.2.4v-.2.4h0v.3-.2c0,0,0,.2-.2.4,0-.2-.2.2,0,0,0,0-.3.2,0,0,0,0-.2,0-.4.2h.2-.4,0-.4.2c0,0-.2,0-.4-.2.2,0-.2-.2,0,0,0,0-.2-.3,0,0,0,0,0-.2-.2-.4v.2-.4h0c0,.7.7,1.5,1.4,1.4.7,0,1.5-.7,1.4-1.4,0-.6-.2-1-.6-1.4s-.9-.6-1.4-.6c-1.1,0-2,.9-2,2s.9,2,2,2,1-.2,1.4-.6.6-.8.7-1.4c0-.7-.7-1.5-1.4-1.4-.8,0-1.4.7-1.4,1.4h0Z"/>
  <g>
    <g>
      <path class="st0" d="M92.3,49.7h16c1,0,1.6-.2,1.7.9v2.9c0,.9.3,2.2,0,3-.4.8-2.2.5-2.9.5h-12.9c-1.3,0-2.2.4-2.2-1v-3.6c0-1.2-.5-2.5.7-2.7,1.8-.3,1-3-.7-2.7-3.3.5-2.8,3.8-2.8,6.3s-.6,5.3,2,6.4c1.4.6,3.3.3,4.8.3h8.4c1.8,0,3.6,0,5.3,0,2.9-.2,3.3-2.5,3.3-4.8s.7-5.2-.7-6.9c-1.2-1.6-3.3-1.2-5.1-1.2h-14.8c-1.9,0-1.9,2.8,0,2.8h0Z"/>
      <path class="st0" d="M62.2,49.7h16c1.1,0,1.6-.2,1.7,1v3.2c0,1,.3,2,0,2.5-.4.8-2.2.5-3.1.5h-12.8c-1.2,0-2.1.4-2.2-1v-3.6c0-1.2-.5-2.5.7-2.7,1.8-.3,1-3-.7-2.7-3.3.5-2.8,3.8-2.8,6.3s-.6,5.4,2.1,6.5c1.4.6,3.3.3,4.7.3h8.4c1.8,0,3.6,0,5.3,0,2.9-.2,3.3-2.5,3.3-4.8s.7-5.2-.7-6.9c-1.2-1.6-3.3-1.2-5.1-1.2h-14.8c-1.9,0-1.9,2.8,0,2.8h0Z"/>
      <path class="st0" d="M32,49.7h16.2c1.2,0,1.6,0,1.6,1.3v3.1c0,.6.3,2,0,2.4-.5.7-2.3.4-3.1.4h-12.8c-1.2,0-2.1.4-2.2-1v-3.6c0-1.2-.5-2.5.7-2.7,1.8-.3,1-3-.7-2.7-3.3.5-2.8,3.8-2.8,6.3s-.6,5.4,2.1,6.5c1.4.6,3.3.3,4.7.3h8.4c1.8,0,3.6,0,5.3,0,2.9-.2,3.3-2.4,3.3-4.8s.7-5.2-.7-6.9c-1.2-1.6-3.3-1.2-5.1-1.2h-14.8c-1.9,0-1.9,2.8,0,2.8h0Z"/>
    </g>
    <path class="st0" d="M32.5,68.9h70.6c1.9,0,4.1-.4,5.9,0,1.9.4,1.1,3.8,1.1,5.2v21.6c0,1.3.2,2.9,0,4.2-.3,1.7-1.7,1.3-3.1,1.3H33.6c-.3,0-.8,0-1.1,0-1.1-.4-.7-1.9-.7-2.7v-26.7c0-.7-.4-2.8.7-3,1.8-.2,1.8-3.1,0-2.8-4.5.6-3.7,5.3-3.7,8.7v15.6c0,3.4-.2,6.7,0,10.1.2,3.3,2.9,3.7,5.5,3.7h55.9c6.3,0,12.5.3,18.8,0,1.8,0,3.4-.9,3.7-2.7.3-.9,0-2.1,0-3.1v-27.5c0-1.5,0-3-1.5-4-.8-.7-1.8-.7-2.8-.7-6.8,0-13.7,0-20.5,0h-55.6c-1.9,0-1.9,2.8,0,2.8h0Z"/>
  </g>
  <path class="st0" d="M66.4,111.7H30.3c-1.9,0-1.9,2.8,0,2.8h36.1c1.9,0,1.9-2.8,0-2.8h0Z"/>
  <path class="st0" d="M111.4,111.7h-7.3c-1.9,0-1.9,2.8,0,2.8h7.3c1.9,0,1.9-2.8,0-2.8h0Z"/>
  <path class="st0" d="M96.5,111.7h-7.3c-1.9,0-1.9,2.8,0,2.8h7.3c1.9,0,1.9-2.8,0-2.8h0Z"/>
  <path class="st0" d="M81.5,111.7h-7.3c-1.9,0-1.9,2.8,0,2.8h7.3c1.9,0,1.9-2.8,0-2.8h0Z"/>
</svg>