<svg width="20" height="20" viewBox="0 0 20 20" fill="none" xmlns="http://www.w3.org/2000/svg">
<path fill-rule="evenodd" clip-rule="evenodd" d="M13.9225 6.07737C14.1682 6.323 14.2357 6.69523 14.0919 7.01146L12.0086 11.5948C11.9252 11.7782 11.7782 11.9252 11.5948 12.0086L7.01146 14.0919C6.69523 14.2357 6.323 14.1682 6.07737 13.9225C5.83174 13.6769 5.76424 13.3047 5.90799 12.9885L7.99132 8.40512C8.0747 8.2217 8.2217 8.0747 8.40512 7.99132L12.9885 5.90799C13.3047 5.76424 13.6769 5.83174 13.9225 6.07737ZM9.37928 9.37928L8.34483 11.6551L10.6206 10.6206L11.6551 8.34483L9.37928 9.37928Z" fill="#333333"/>
<path fill-rule="evenodd" clip-rule="evenodd" d="M1.66663 9.99996C1.66663 5.39759 5.39759 1.66663 9.99996 1.66663C14.6023 1.66663 18.3333 5.39759 18.3333 9.99996C18.3333 14.6023 14.6023 18.3333 9.99996 18.3333C5.39759 18.3333 1.66663 14.6023 1.66663 9.99996ZM9.99996 3.33329C6.31806 3.33329 3.33329 6.31806 3.33329 9.99996C3.33329 13.6819 6.31806 16.6666 9.99996 16.6666C13.6819 16.6666 16.6666 13.6819 16.6666 9.99996C16.6666 6.31806 13.6819 3.33329 9.99996 3.33329Z" fill="#333333"/>
</svg>
