<?xml version="1.0" encoding="utf-8"?>
<!-- Generator: Adobe Illustrator 28.1.0, SVG Export Plug-In . SVG Version: 6.00 Build 0)  -->
<svg version="1.1"
	 id="svg8" xmlns:dc="http://purl.org/dc/elements/1.1/" xmlns:svg="http://www.w3.org/2000/svg" xmlns:cc="http://creativecommons.org/ns#" xmlns:rdf="http://www.w3.org/1999/02/22-rdf-syntax-ns#"
	 xmlns="http://www.w3.org/2000/svg" xmlns:xlink="http://www.w3.org/1999/xlink" x="0px" y="0px" viewBox="0 0 24 24"
	 style="enable-background:new 0 0 24 24;" xml:space="preserve">
<style type="text/css">
	.st0{fill:#005087;}
</style>
<g id="g1265" transform="translate(-1.0999855e-7,-290.64998)">
	<path id="rect1251" class="st0" d="M12,290.7c-0.3,0-0.5,0.1-0.7,0.3l-10.8,8.4c-0.3,0.2-0.5,0.6-0.5,0.9v10.5
		c0,2.1,1.8,3.9,3.9,3.9h16.2c2.1,0,3.9-1.8,3.9-3.9v-10.5c0-0.4-0.2-0.7-0.5-0.9l-10.8-8.4C12.5,290.7,12.3,290.6,12,290.7z
		 M12,293.4l9.6,7.5v9.9c0,0.9-0.7,1.5-1.5,1.5h-3.3v-6c0-2.6-2.2-4.8-4.8-4.8s-4.8,2.2-4.8,4.8v6H3.9c-0.9,0-1.5-0.7-1.5-1.5v-9.9
		L12,293.4z M12,303.9c1.4,0,2.4,1,2.4,2.4v6H9.6v-6C9.6,304.9,10.6,303.9,12,303.9z"/>
</g>
</svg>
