<?xml version="1.0" encoding="UTF-8"?>
<svg id="_圖層_1" data-name="圖層_1" xmlns="http://www.w3.org/2000/svg" version="1.1" viewBox="0 0 141.7 141.7">
  <!-- Generator: Adobe Illustrator 29.0.0, SVG Export Plug-In . SVG Version: 2.1.0 Build 186)  -->
  <defs>
    <style>
      .st0 {
        fill: #21baff;
      }
    </style>
  </defs>
  <g>
    <g>
      <path class="st0" d="M15.5,69.2v-31.9c0-1.8-.3-4.1,1.1-5.5,1-1.1,2.4-.9,3.7-.9h71.2c1.7,0,4.4-.5,5.8.9,1.4,1.5,1.1,3.9,1.1,5.8v28c0,1.9,3,1.9,3,0,0-10.3.3-20.6,0-30.9-.1-3.6-2.4-6.7-6.1-6.8-2.2,0-4.3,0-6.5,0H26.8c-2.7,0-5.3,0-8,0-3.8,0-6.2,3.1-6.3,6.8-.4,11.1,0,22.3,0,33.5v1.1c0,1.9,3,1.9,3,0h0Z"/>
      <path class="st0" d="M84,87.7H32c-1.9,0-1.9,3,0,3h52c1.9,0,1.9-3,0-3h0Z"/>
      <path class="st0" d="M37.9,103.1h38c1.9,0,1.9-3,0-3h-38c-1.9,0-1.9,3,0,3h0Z"/>
      <path class="st0" d="M64.4,89.6c1.2,4.1,2.3,8.3,3.5,12.4.5,1.9,3.4,1.1,2.9-.8-1.2-4.1-2.3-8.3-3.5-12.4-.5-1.9-3.4-1.1-2.9.8h0Z"/>
      <path class="st0" d="M46.4,88.8c-1.2,4.1-2.3,8.3-3.5,12.4-.5,1.9,2.4,2.7,2.9.8,1.2-4.1,2.3-8.3,3.5-12.4.5-1.9-2.4-2.7-2.9-.8h0Z"/>
      <path class="st0" d="M84,78.5H32c-1.9,0-1.9,3,0,3h52c1.9,0,1.9-3,0-3h0Z"/>
    </g>
    <g>
      <path class="st0" d="M129.4,96h-39.7c-.8,0-3.1.4-3.8,0-.8-.4-.3-3-.3-3.7v-22.9c0-.4-.2-1.4,0-1.8.3-.7,1.8-.4,2.5-.4h36.4c1.3,0,3.4-.4,4.7,0,.9.3.5,1.3.5,2.2v8.3c0,5.8.1,11.5,0,17.3,0,.3.1,1-.3,1-1.9.3-1.9,3.3,0,3,3-.4,3.3-2.7,3.3-5.1v-9.1c0-5.7.3-11.6,0-17.3-.3-4.7-7-3.4-10.2-3.4h-21.5c-5,0-10-.2-15,0-2.3.1-3.5,1.7-3.5,3.9,0,2.5,0,5,0,7.5v19.3c0,2.2.9,4,3.4,4.2,1.6,0,3.2,0,4.7,0h38.8c1.9,0,1.9-3,0-3Z"/>
      <path class="st0" d="M130.2,96h-43.8c-1.7,0-3.1,0-4.2,1.6-1.4,2-2.7,4.2-4,6.2-1.2,1.9-3.3,4.1-2.3,6.6.8,1.8,2.4,2.3,4.2,2.3,4,0,8,0,12.1,0h36.9c2.9,0,8.8,1.1,10.2-2.3,1.1-2.7-1.6-5.5-2.9-7.6-1.3-2.1-3-6.3-5.7-6.7-1.9-.3-2.7,2.6-.8,2.9.9.2,1.2,1.1,1.7,1.8l2.3,3.5c.6.9,3.9,4.7,2.1,5.4-.5.2-1.5,0-2.1,0h-51.8c-.7,0-1.8.2-2.5,0-1.9-.5.8-3.6,1.4-4.4.7-1.1,1.4-2.2,2.2-3.4.4-.7,1-2.2,1.7-2.7.6-.4,1.5-.2,2.2-.2h43.3c1.9,0,1.9-3,0-3Z"/>
      <path class="st0" d="M103,107.1h9.3c1.9,0,1.9-3,0-3h-9.3c-1.9,0-1.9,3,0,3h0Z"/>
    </g>
  </g>
  <g>
    <path class="st0" d="M27.2,67.7h-14.2c-1.9,0-4-.2-5.7.6-2.5,1.1-3.6,3.5-3.7,6.1-.2,10.1,0,20.3,0,30.4s-.7,8.8,3.7,10.9c1.8.8,3.8.6,5.7.6h8.9c1.7,0,3.5,0,5.2,0,3.6-.2,6.2-2.8,6.3-6.3.1-3.7,0-7.4,0-11.1v-19.7c0-1.6,0-3.3,0-4.9-.1-3.7-2.6-6.3-6.3-6.5-1.9-.1-1.9,2.9,0,3,4.4.3,3.3,6.1,3.3,9.1v28.8c0,1.6,0,3.2-1.5,4.2-1.3.9-3.4.5-4.9.5-4.6,0-9.2.1-13.8,0-4.3-.1-3.6-4.6-3.6-7.6v-29.2c0-1.2-.2-2.7.3-3.9,1.1-2.4,4-1.9,6.1-1.9h14.2c1.9,0,1.9-3,0-3Z"/>
    <g>
      <path class="st0" d="M5.1,78.1h26.9c1.9,0,1.9-3,0-3H5.1c-1.9,0-1.9,3,0,3h0Z"/>
      <path class="st0" d="M5.1,108.9h26.9c1.9,0,1.9-3,0-3H5.1c-1.9,0-1.9,3,0,3h0Z"/>
    </g>
  </g>
</svg>