<?xml version="1.0" encoding="utf-8"?>
<!-- Generator: Adobe Illustrator 28.1.0, SVG Export Plug-In . SVG Version: 6.00 Build 0)  -->
<svg version="1.1" id="Layer_1" xmlns="http://www.w3.org/2000/svg" xmlns:xlink="http://www.w3.org/1999/xlink" x="0px" y="0px"
	 viewBox="0 0 128 128" style="enable-background:new 0 0 128 128;" xml:space="preserve">
<style type="text/css">
	.st0{fill:#FFFFFF;}
</style>
<g id="Layer_40">
	<path class="st0" d="M109,94H19c-6.21,0-11.25-5.04-11.25-11.25v-60c0-6.21,5.04-11.25,11.25-11.25h90
		c6.21,0,11.25,5.04,11.25,11.25v60C120.25,88.96,115.21,94,109,94z M19,19c-2.07,0-3.75,1.68-3.75,3.75v60
		c0,2.07,1.68,3.75,3.75,3.75h90c2.07,0,3.75-1.68,3.75-3.75v-60c0-2.07-1.68-3.75-3.75-3.75H19z"/>
	<path class="st0" d="M82.75,116.5h-37.5c-2.07,0.03-3.77-1.63-3.8-3.7c0-0.22,0.01-0.43,0.05-0.65l3.75-22.5
		c0.3-1.83,1.89-3.17,3.75-3.15h30c1.86-0.02,3.45,1.32,3.75,3.15l3.75,22.5c0.33,2.04-1.06,3.97-3.1,4.3
		C83.18,116.49,82.97,116.5,82.75,116.5z M49.68,109h28.65l-2.51-15H52.19L49.68,109z"/>
	<path class="st0" d="M94,116.5H34c-2.07,0-3.75-1.68-3.75-3.75S31.93,109,34,109h60c2.07,0,3.75,1.68,3.75,3.75
		S96.07,116.5,94,116.5z"/>
	<path class="st0" d="M116.5,75.25h-105c-2.07,0-3.75-1.68-3.75-3.75s1.68-3.75,3.75-3.75h105c2.07,0,3.75,1.68,3.75,3.75
		S118.57,75.25,116.5,75.25z"/>
</g>
</svg>
