<svg width="20" height="20" viewBox="0 0 20 20" fill="none" xmlns="http://www.w3.org/2000/svg">
<path fill-rule="evenodd" clip-rule="evenodd" d="M6.66666 9.9998C6.66666 8.15885 8.15905 6.66647 10 6.66647C11.8409 6.66647 13.3333 8.15885 13.3333 9.9998C13.3333 11.8407 11.8409 13.3331 10 13.3331C8.15905 13.3331 6.66666 11.8407 6.66666 9.9998ZM10 8.33313C9.07952 8.33313 8.33333 9.07933 8.33333 9.9998C8.33333 10.9203 9.07952 11.6665 10 11.6665C10.9205 11.6665 11.6667 10.9203 11.6667 9.9998C11.6667 9.07933 10.9205 8.33313 10 8.33313Z" fill="#333333"/>
<path fill-rule="evenodd" clip-rule="evenodd" d="M9.4803 1.14594C9.82299 1.0731 10.1772 1.0731 10.5199 1.14594C10.9109 1.22905 11.2641 1.43352 11.6659 1.6662C11.6936 1.68222 11.7215 1.69838 11.7497 1.71464L16.3062 4.34533C16.3341 4.36147 16.3619 4.37743 16.3894 4.39328C16.7883 4.62293 17.1413 4.82616 17.4081 5.12239C17.6424 5.38269 17.8197 5.68953 17.928 6.0228C18.0513 6.4024 18.0508 6.81036 18.0502 7.27251C18.0502 7.30438 18.0501 7.3365 18.0501 7.3689V12.6307C18.0501 12.6631 18.0502 12.6952 18.0502 12.7271C18.0508 13.1892 18.0513 13.5972 17.928 13.9768C17.8196 14.3103 17.6423 14.6169 17.4081 14.8771C17.1402 15.1746 16.7861 15.3785 16.3822 15.611C16.3553 15.6265 16.3281 15.6422 16.3007 15.658L11.7505 18.2851C11.7233 18.3008 11.6964 18.3163 11.6697 18.3318C11.266 18.5655 10.9118 18.7705 10.5199 18.8538C10.1772 18.9267 9.82299 18.9267 9.4803 18.8538C9.08847 18.7706 8.73427 18.5655 8.33054 18.3318C8.30383 18.3163 8.27691 18.3008 8.24975 18.2851L3.69954 15.658C3.67185 15.642 3.64438 15.6262 3.61713 15.6105C3.21382 15.3783 2.85972 15.1744 2.59197 14.8771C2.35753 14.6167 2.18048 14.31 2.07222 13.9768C1.9487 13.5966 1.94921 13.1881 1.94979 12.7238C1.94983 12.6918 1.94987 12.6595 1.94987 12.627V7.37285C1.94987 7.34031 1.94983 7.30804 1.94979 7.27603C1.94921 6.81172 1.9487 6.40299 2.07222 6.0228C2.18042 5.68982 2.35739 5.38292 2.59197 5.12239C2.85935 4.82544 3.21298 4.62186 3.61492 4.39046C3.64262 4.37452 3.67055 4.35844 3.69869 4.34219L8.24975 1.71464C8.27675 1.69905 8.30352 1.68355 8.33006 1.66819C8.73411 1.4343 9.08834 1.22925 9.4803 1.14594ZM10.1734 2.77619C10.0592 2.75191 9.94105 2.75191 9.82682 2.77619C9.72812 2.79716 9.61659 2.84999 9.08309 3.15801L4.53202 5.78557C3.99824 6.09375 3.89781 6.16291 3.83055 6.23761C3.75256 6.32422 3.69348 6.42655 3.65732 6.53783C3.62622 6.63355 3.61653 6.75573 3.61653 7.37285V12.627C3.61653 13.2441 3.62621 13.3661 3.65732 13.4618C3.69341 13.5729 3.75242 13.6751 3.83055 13.7619C3.89797 13.8367 3.99888 13.9063 4.53287 14.2146L9.08309 16.8417C9.61671 17.1498 9.72816 17.2026 9.82682 17.2236C9.94104 17.2479 10.0592 17.2479 10.1734 17.2236C10.2721 17.2026 10.3835 17.1498 10.9172 16.8417L15.4674 14.2146C16.0011 13.9065 16.102 13.8368 16.1695 13.7619C16.2478 13.6749 16.3069 13.5726 16.3429 13.4618C16.3738 13.3666 16.3835 13.2451 16.3835 12.6307V7.3689C16.3835 6.75452 16.3738 6.63299 16.3429 6.53783C16.3068 6.42684 16.2477 6.32445 16.1695 6.23761C16.1029 6.16362 16.0029 6.09475 15.4728 5.78871L10.9163 3.15801C10.382 2.84951 10.2719 2.79712 10.1734 2.77619Z" fill="#333333"/>
</svg>
