<?xml version="1.0" encoding="utf-8"?>
<!-- Generator: Adobe Illustrator 27.7.0, SVG Export Plug-In . SVG Version: 6.00 Build 0)  -->
<svg version="1.1" id="Layer_1" xmlns="http://www.w3.org/2000/svg" xmlns:xlink="http://www.w3.org/1999/xlink" x="0px" y="0px"
	 viewBox="0 0 128 128" style="enable-background:new 0 0 128 128;" xml:space="preserve">
<style type="text/css">
	.st0{fill-rule:evenodd;clip-rule:evenodd;fill:#FFFFFF;}
</style>
<path class="st0" d="M64,6.2c31.9,0,57.8,25.9,57.8,57.8S95.9,121.8,64,121.8S6.2,95.9,6.2,64S32.1,6.2,64,6.2z M98.6,46.6
	c-0.8-3.1-3.3-5.6-6.4-6.4C86.6,38.7,64,38.7,64,38.7s-22.6,0-28.2,1.5c-3.1,0.8-5.6,3.3-6.4,6.4C27.9,52.3,27.9,64,27.9,64
	s0,11.7,1.5,17.4c0.8,3.1,3.3,5.6,6.4,6.4c5.6,1.5,28.2,1.5,28.2,1.5s22.6,0,28.2-1.5c3.1-0.8,5.6-3.3,6.4-6.4
	c1.5-5.6,1.5-17.4,1.5-17.4S100.1,52.3,98.6,46.6L98.6,46.6z M56.8,74.8V53.2L75.5,64L56.8,74.8L56.8,74.8z"/>
</svg>
