<?xml version="1.0" encoding="UTF-8"?>
<svg id="_圖層_1" data-name="圖層_1" xmlns="http://www.w3.org/2000/svg" version="1.1" viewBox="0 0 141.7 141.7">
  <!-- Generator: Adobe Illustrator 29.0.0, SVG Export Plug-In . SVG Version: 2.1.0 Build 186)  -->
  <defs>
    <style>
      .st0 {
        fill: #21baff;
      }
    </style>
  </defs>
  <path class="st0" d="M67.7,93H19.3c-1,0-1.9,0-2.9,0-2.5,0-3.9-2.1-4-4.5,0-1.9,0-3.8,0-5.7v-29.4c0-7.5,0-14.9,0-22.4,0-1.9.7-4.1,2.7-4.8,1.8-.6,4.2-.2,6-.2h78.9c3.6,0,9-1.1,9.6,3.9.5,4,0,8.3,0,12.4v4.1c0,2.1,3.2,2.1,3.2,0v-12.9c0-1.8.2-3.8-.4-5.5-.9-3-3.4-5.1-6.5-5.2-8.7-.4-17.4,0-26.1,0H19c-2.3,0-4.5-.2-6.5,1.1-3.2,2.1-3.3,5.7-3.3,9.1v44.3c0,6-2,18.4,6.9,18.8,7.2.3,14.4,0,21.6,0h30c2.1,0,2.1-3.2,0-3.2h0Z"/>
  <path class="st0" d="M38.8,110.8h26.8c2.1,0,2.1-3.2,0-3.2h-26.8c-2.1,0-2.1,3.2,0,3.2h0Z"/>
  <path class="st0" d="M49,94.2c-1.4,4.8-2.7,9.7-4.1,14.5-.6,2,2.5,2.8,3.1.8,1.4-4.8,2.7-9.7,4.1-14.5.6-2-2.5-2.8-3.1-.8h0Z"/>
  <g>
    <path class="st0" d="M90.3,117.2c-.3-4.1-.6-8.3-.8-12.4-.1-2-3.3-2.1-3.2,0,.3,4.1.6,8.3.8,12.4.1,2,3.3,2.1,3.2,0h0Z"/>
    <path class="st0" d="M116.1,104.8c-.3,4.1-.6,8.3-.8,12.4-.1,2.1,3.1,2,3.2,0,.3-4.1.6-8.3.8-12.4.1-2.1-3.1-2-3.2,0h0Z"/>
    <path class="st0" d="M75.3,117.2v-15.6c0-4.1,2-7.8,6.2-8.8,2.6-.7,5.6-.9,8.3-1.4,3.6-.7,7.2-1.4,10.9-1.6,4.3-.2,8.5.4,12.7,1.2,2.7.5,5.5,1.1,8.3,1.5,2.2.3,4.1.5,5.9,2.1,1.9,1.6,2.7,3.8,2.8,6.2.2,5.5,0,11,0,16.5s3.2,2.1,3.2,0c0-5.4.1-10.9,0-16.3,0-4.6-2.5-8.7-6.8-10.6-2.8-1.2-6.6-1.4-9.6-1.9-3.8-.7-7.5-1.5-11.4-1.8-4.9-.3-9.6.3-14.4,1.2-2.9.5-5.9,1.2-8.8,1.5-5.1.5-9.4,4.2-10.3,9.4-.5,3.1-.2,6.4-.2,9.5v8.9c0,2.1,3.2,2.1,3.2,0h0Z"/>
    <path class="st0" d="M87.4,65.3c.1,6.4,4,12.1,10,14.4,6.1,2.3,13.1.4,17.3-4.6,4.1-5,4.7-12.2,1.4-17.7-3.3-5.5-9.8-8.4-16.1-7.3-7.3,1.3-12.4,7.8-12.6,15.1,0,2.1,3.2,2.1,3.2,0,.1-6.7,5.5-12.2,12.2-12.2s12.2,5.6,12.2,12.2-5.5,12.2-12.2,12.2-12.1-5.6-12.2-12.2c0-2.1-3.2-2.1-3.2,0Z"/>
  </g>
  <g>
    <g>
      <path class="st0" d="M28.4,57.1c0-2.6-.6-5.7,2.7-6.4,2.3-.5,4.7-1.2,7.1-1.2s4.7.7,7,1.2c3.2.7,2.7,3.8,2.7,6.4s3.2,2.1,3.2,0c0-3.3.3-7.3-3.2-9-1.3-.6-3-.7-4.3-1-1.8-.4-3.5-.8-5.3-.8-1.8,0-3.6.4-5.3.8-1.3.3-2.9.4-4.1.9-3.8,1.6-3.5,5.7-3.5,9.1s3.2,2.1,3.2,0h0Z"/>
      <path class="st0" d="M30.2,37.4c.2,4.3,3.5,7.9,7.9,7.9s7.9-3.6,7.9-7.9-3.6-7.9-7.9-7.9-7.7,3.6-7.9,7.9c0,2.1,3.1,2.1,3.2,0,.3-6.1,9.5-6.1,9.5,0,0,6.1-9.2,6.1-9.5,0,0-2-3.3-2.1-3.2,0Z"/>
    </g>
    <g>
      <path class="st0" d="M69,57.1c0-1.6-.5-4.5.8-5.7,1.1-1,3.7-1.1,5.2-1.4,2.3-.5,4.5-.6,6.8-.1,1.5.3,4.5.5,5.8,1.5,1.6,1.3,3.8-.9,2.3-2.3-1.9-1.7-4.7-1.9-7.2-2.4-3.1-.6-5.9-.4-8.9.2-2.4.5-5.1.6-6.7,2.8-1.6,2.1-1.3,4.8-1.3,7.4s3.2,2.1,3.2,0h0Z"/>
      <path class="st0" d="M70.8,37.4c.2,4.3,3.5,7.9,7.9,7.9s7.9-3.6,7.9-7.9-3.6-7.9-7.9-7.9-7.7,3.6-7.9,7.9c0,2.1,3.1,2.1,3.2,0,.3-6.1,9.5-6.1,9.5,0,0,6.1-9.2,6.1-9.5,0,0-2-3.3-2.1-3.2,0Z"/>
    </g>
    <g>
      <path class="st0" d="M28.4,88c0-2.6-.6-5.7,2.7-6.4,2.3-.5,4.7-1.2,7.1-1.2s4.7.7,7,1.2c3.2.7,2.7,3.8,2.7,6.4s3.2,2.1,3.2,0c0-3.3.3-7.3-3.2-9-1.3-.6-3-.7-4.3-1-1.8-.4-3.5-.8-5.3-.8-1.8,0-3.6.4-5.3.8-1.3.3-2.9.4-4.1.9-3.8,1.6-3.5,5.7-3.5,9.1s3.2,2.1,3.2,0h0Z"/>
      <path class="st0" d="M30.2,68.4c.2,4.3,3.5,7.9,7.9,7.9s7.9-3.6,7.9-7.9-3.6-7.9-7.9-7.9-7.7,3.6-7.9,7.9c0,2.1,3.1,2.1,3.2,0,.3-6.1,9.5-6.1,9.5,0,0,6.1-9.2,6.1-9.5,0,0-2-3.3-2.1-3.2,0Z"/>
    </g>
  </g>
</svg>