<?xml version="1.0" encoding="utf-8"?>
<!-- Generator: Adobe Illustrator 27.7.0, SVG Export Plug-In . SVG Version: 6.00 Build 0)  -->
<svg version="1.1" id="Layer_1" xmlns="http://www.w3.org/2000/svg" xmlns:xlink="http://www.w3.org/1999/xlink" x="0px" y="0px"
	 viewBox="0 0 128 128" style="enable-background:new 0 0 128 128;" xml:space="preserve">
<style type="text/css">
	.st0{fill-rule:evenodd;clip-rule:evenodd;fill:#FFFFFF;}
</style>
<path class="st0" d="M63.8,121.8L63.8,121.8L63.8,121.8L63.8,121.8L63.8,121.8z M64.2,121.8L64.2,121.8L64.2,121.8L64.2,121.8z
	 M63.6,121.8L63.6,121.8L63.6,121.8L63.6,121.8z M64.4,121.8L64.4,121.8L64.4,121.8L64.4,121.8z M63.4,121.8L63.4,121.8L63.4,121.8
	L63.4,121.8L63.4,121.8z M64.6,121.8L64.6,121.8L64.6,121.8L64.6,121.8L64.6,121.8z M64.7,121.8L64.7,121.8L64.7,121.8L64.7,121.8
	L64.7,121.8z M63.2,121.8L63.2,121.8L63.2,121.8L63.2,121.8L63.2,121.8z M64.9,121.8L64.9,121.8L64.9,121.8L64.9,121.8L64.9,121.8z
	 M63,121.8L63,121.8L63,121.8L63,121.8L63,121.8z M65.1,121.7L65.1,121.7L65.1,121.7L65.1,121.7z M62.9,121.7L62.9,121.7L62.9,121.7
	L62.9,121.7L62.9,121.7z M62.7,121.7L62.7,121.7L62.7,121.7L62.7,121.7L62.7,121.7z M65.3,121.7L65.3,121.7L65.3,121.7L65.3,121.7z
	 M62.5,121.7L62.5,121.7L62.5,121.7L62.5,121.7z M65.5,121.7L65.5,121.7L65.5,121.7L65.5,121.7z M65.7,121.7L65.7,121.7L65.7,121.7
	L65.7,121.7L65.7,121.7z M62.3,121.7L62.3,121.7L62.3,121.7L62.3,121.7L62.3,121.7z M62.1,121.7L62.1,121.7L62.1,121.7L62.1,121.7
	L62.1,121.7z M65.9,121.7L65.9,121.7L65.9,121.7L65.9,121.7L65.9,121.7z M66,121.7L66,121.7L66,121.7L66,121.7z M61.9,121.7
	L61.9,121.7L61.9,121.7L61.9,121.7z M61.7,121.7L61.7,121.7L61.7,121.7L61.7,121.7z M66.2,121.7L66.2,121.7L66.2,121.7L66.2,121.7z
	 M61.6,121.7L61.6,121.7L61.6,121.7L61.6,121.7L61.6,121.7z M66.4,121.7L66.4,121.7L66.4,121.7L66.4,121.7L66.4,121.7z M61.3,121.7
	L61.3,121.7L61.3,121.7L61.3,121.7z M66.6,121.7L66.6,121.7L66.6,121.7L66.6,121.7L66.6,121.7z M61.2,121.7L61.2,121.7L61.2,121.7
	L61.2,121.7z M66.8,121.7L66.8,121.7L66.8,121.7L66.8,121.7z M61,121.7L61,121.7L61,121.7L61,121.7z M67,121.7L67,121.7L67,121.7
	L67,121.7z M67.2,121.7L67.2,121.7L67.2,121.7L67.2,121.7L67.2,121.7L67.2,121.7z M60.9,121.7L60.9,121.7L60.9,121.7L60.9,121.7
	L60.9,121.7L60.9,121.7z M67.3,121.7L67.3,121.7L67.3,121.7L67.3,121.7z M60.6,121.7L60.6,121.7L60.6,121.7L60.6,121.7z M60.4,121.7
	L60.4,121.7L60.4,121.7L60.4,121.7L60.4,121.7z M67.5,121.7L67.5,121.7L67.5,121.7L67.5,121.7L67.5,121.7z M60.3,121.6L60.3,121.6
	L60.3,121.6L60.3,121.6L60.3,121.6L60.3,121.6z M67.7,121.6L67.7,121.6L67.7,121.6L67.7,121.6L67.7,121.6L67.7,121.6z M67.9,121.6
	L67.9,121.6L67.9,121.6L67.9,121.6L67.9,121.6z M60,121.6L60,121.6L60,121.6L60,121.6z M59.9,121.6L59.9,121.6L59.9,121.6
	L59.9,121.6L59.9,121.6z M68.1,121.6L68.1,121.6L68.1,121.6L68.1,121.6z M59.7,121.6L59.7,121.6L59.7,121.6L59.7,121.6L59.7,121.6z
	 M68.3,121.6L68.3,121.6L68.3,121.6L68.3,121.6L68.3,121.6z M59.5,121.6L59.5,121.6L59.5,121.6L59.5,121.6z M68.4,121.6L68.4,121.6
	L68.4,121.6L68.4,121.6z M68.6,121.6L68.6,121.6L68.6,121.6L68.6,121.6z M59.3,121.6L59.3,121.6L59.3,121.6L59.3,121.6L59.3,121.6z
	 M59.2,121.6L59.2,121.6L59.2,121.6L59.2,121.6z M68.8,121.6L68.8,121.6L68.8,121.6L68.8,121.6z M59,121.5L59,121.5L59,121.5
	L59,121.5L59,121.5z M69,121.5L69,121.5L69,121.5L69,121.5L69,121.5z M69.2,121.5L69.2,121.5L69.2,121.5L69.2,121.5L69.2,121.5z
	 M58.8,121.5L58.8,121.5L58.8,121.5L58.8,121.5L58.8,121.5z M58.6,121.5L58.6,121.5L58.6,121.5L58.6,121.5z M69.4,121.5L69.4,121.5
	L69.4,121.5L69.4,121.5z M55,121.1C27.4,116.7,6.2,92.8,6.2,64C6.2,32.1,32.1,6.2,64,6.2s57.8,25.9,57.8,57.8
	c0,28.8-21.1,52.7-48.7,57.1V80.7h13.5L89,64H73V53.2c0-4.6,2.2-9,9.4-9h7.3V29.9c0,0-6.6-1.1-12.9-1.1c-13.2,0-21.8,8-21.8,22.5V64
	H40.3v16.7H55V121.1z"/>
</svg>
