<svg width="137" height="49" viewBox="0 0 137 49" fill="none" xmlns="http://www.w3.org/2000/svg">
<path d="M112.804 3.66541e-05C102.347 -0.0153107 93.1673 4.78841 89.9148 15.286H89.398V1.81102H73.5307V26.4896C73.5307 32.5518 71.9045 35.3296 67.2233 35.3296C62.2838 35.3296 60.9311 32.3369 60.9311 26.4896V1.82637H45.2462V24.8014C45.2462 25.7068 45.3373 26.4589 45.3829 27.303L44.9726 27.4257L34.6983 1.82637H18.983L0 48.9427H17.5544L26.6127 20.2739H26.8559H27.0383L36.1118 48.9427H53.651L50.3377 40.7012L50.6113 40.5631C54.2437 43.7093 59.7608 44.9678 67.2841 44.9678C80.4157 44.9678 87.1486 41.0388 88.8813 30.7868H89.322C91.997 42.6503 101.694 48.0219 112.758 48.0219C125.783 48.0219 136.985 40.7165 137 24.0033C137.03 7.29003 125.829 3.66541e-05 112.804 3.66541e-05ZM112.804 38.1075C106.162 38.1075 104.764 30.4185 104.764 24.034C104.764 17.6495 106.162 9.96046 112.819 9.94512C119.446 9.94512 120.859 17.6188 120.859 24.0186C120.859 30.4185 119.461 38.1228 112.804 38.1075Z" fill="white"/>
</svg>
