<svg width="99" height="110" viewBox="0 0 99 110" fill="none" xmlns="http://www.w3.org/2000/svg">
<g clip-path="url(#clip0_5799_254)">
<path d="M1.56469 102.292C0.701874 102.292 0 101.592 0 100.732V74.907C0 66 6.97851 58.5597 15.8883 57.9623L19.5273 57.7171C20.8193 57.6369 22.0979 57.3649 23.3407 56.9058C23.8458 56.7141 24.3242 56.5045 24.7936 56.2638C25.2406 56.0365 25.6743 55.7824 26.09 55.506C26.1079 55.4926 26.1303 55.4792 26.1482 55.4703C27.8514 54.3157 28.8618 52.4077 28.8618 50.357V48.8948C28.8618 48.0344 29.5636 47.3345 30.4265 47.3345C31.2893 47.3345 31.9911 48.0344 31.9911 48.8948V50.357C31.9911 53.4731 30.4399 56.3664 27.8425 58.096C27.8246 58.1094 27.8023 58.1228 27.7844 58.1317C27.2837 58.4616 26.7606 58.7692 26.2286 59.0411C25.6564 59.3353 25.0708 59.5939 24.4449 59.8302C22.907 60.4008 21.3245 60.7351 19.7374 60.8332L16.1029 61.0784C8.83378 61.5643 3.13832 67.6405 3.13832 74.9114V100.736C3.13832 101.597 2.43644 102.297 1.57363 102.297L1.56469 102.292Z" fill="white"/>
<path d="M51.5139 58.582C51.2322 58.582 50.9417 58.5062 50.6868 58.3457C50.5572 58.2655 50.4275 58.1808 50.2979 58.0961C47.6961 56.3708 46.1448 53.4732 46.1448 50.3526V49.6438C46.1448 48.7834 46.8466 48.079 47.7095 48.079C48.5723 48.079 49.2742 48.7745 49.2742 49.6349V50.3481C49.2742 52.4211 50.3068 54.3469 52.0325 55.4926C52.1353 55.5595 52.2426 55.6264 52.3499 55.6932C53.083 56.1479 53.3066 57.1109 52.8461 57.842C52.5511 58.3145 52.0414 58.5731 51.5184 58.5731L51.5139 58.582Z" fill="white"/>
<path d="M39.6224 66.214C32.9926 66.214 27.0691 63.2405 24.1677 58.4527C23.7207 57.7171 23.9576 56.7542 24.6997 56.3084C25.4373 55.8626 26.3985 56.0989 26.85 56.8389C29.1524 60.6371 34.1638 63.0934 39.6224 63.0934C41.5179 63.0934 43.3597 62.8081 45.0943 62.2464C45.9124 61.9789 46.7976 62.4292 47.0658 63.2494C47.334 64.0697 46.8825 64.9479 46.0599 65.2154C44.0124 65.8796 41.8487 66.214 39.6224 66.214Z" fill="white"/>
<path d="M39.6226 53.9368C32.4384 53.9368 25.8935 48.5337 22.5362 39.8363C22.2277 39.0338 22.63 38.1289 23.4347 37.8213C24.2394 37.5137 25.147 37.9149 25.4554 38.7173C28.3345 46.1799 33.7662 50.8207 39.6226 50.8207C45.479 50.8207 50.9017 46.1844 53.7807 38.7173C54.0892 37.9149 54.9967 37.5137 55.8014 37.8213C56.6061 38.1289 57.0085 39.0338 56.7 39.8363C53.3471 48.5337 46.8022 53.9368 39.6181 53.9368H39.6226Z" fill="white"/>
<path d="M23.3542 40.9285C21.0563 40.9285 18.7719 38.8778 17.842 35.7929C16.7735 32.2444 17.9582 28.8563 20.5377 28.0316L22.3617 27.3272L22.5271 25.8115C23.0278 21.1708 25.585 17.074 29.5369 14.573C29.9884 14.2877 30.5562 14.2521 31.039 14.4794C37.2844 17.4038 44.4104 18.0948 51.1028 16.4276L51.1698 16.4097C51.684 16.2804 52.2294 16.4231 52.6183 16.7842C53.0072 17.1453 53.1816 17.6802 53.0877 18.2018C52.4931 21.474 53.6957 24.8575 56.2215 27.0286L56.2707 27.0731L58.7072 28.0405C60.026 28.464 61.0453 29.6053 61.5057 31.1789C61.9125 32.5698 61.8723 34.2103 61.394 35.7974C60.9156 37.3889 60.0394 38.7797 58.9352 39.7114C57.6566 40.7903 56.1455 41.1781 54.791 40.768C53.9639 40.5183 53.4945 39.649 53.7449 38.8243C53.9952 37.9996 54.8625 37.5315 55.694 37.7812C56.0204 37.8748 56.463 37.7098 56.9145 37.3309C57.5582 36.7915 58.0992 35.9044 58.3987 34.9013C58.6982 33.8983 58.7385 32.8596 58.5015 32.0571C58.3361 31.4865 58.0545 31.1031 57.7326 31.0095C57.6879 30.9961 57.6476 30.9828 57.6074 30.9649L54.8714 29.8817C54.7105 29.8192 54.5585 29.7256 54.4289 29.6142L54.1785 29.4002C51.3934 27.0063 49.8153 23.5112 49.8063 19.9048C43.3241 21.0906 36.578 20.3193 30.5249 17.6802C27.7711 19.6908 26.0052 22.74 25.6341 26.1548L25.3704 28.6111C25.3078 29.1907 24.9278 29.6855 24.3824 29.8995L21.6241 30.9694C21.5883 30.9828 21.5481 30.9961 21.5078 31.0095C20.8194 31.2146 20.2203 32.8373 20.8417 34.9058C21.4631 36.9743 22.8579 37.9996 23.5509 37.7901C24.3779 37.5404 25.2497 38.0085 25.5 38.8332C25.7504 39.6579 25.281 40.5273 24.4539 40.7769C24.0918 40.8839 23.7252 40.9374 23.3631 40.9374L23.3542 40.9285Z" fill="white"/>
<path d="M17.7123 27.0687C16.8674 27.0687 16.17 26.3955 16.1477 25.5485C16.0895 23.4444 16.2862 21.3491 16.7244 19.3297C16.8182 18.9017 17.7079 15.0188 20.1667 10.8596C23.3631 5.44761 27.847 1.89462 33.1402 0.583986C40.1187 -1.1457 48.0002 1.07436 52.7524 6.10293C53.7761 7.19067 54.6747 8.42107 55.4258 9.76291C55.4928 9.80749 55.5688 9.85653 55.6448 9.91448C59.8605 12.8523 62.2746 17.9655 61.9528 23.2616C61.9125 23.9303 61.8499 24.6971 61.7829 25.4906C61.7113 26.351 60.9469 26.9884 60.093 26.9127C59.2302 26.8413 58.5954 26.0835 58.6669 25.2276C58.734 24.4608 58.7921 23.7163 58.8323 23.0699C59.0916 18.8527 57.1827 14.7915 53.8566 12.4689C53.7404 12.3886 53.6465 12.3218 53.5794 12.2861C53.2754 12.139 53.0296 11.9027 52.8731 11.604C52.2159 10.3558 51.4112 9.2235 50.4814 8.23829C46.4847 4.00324 39.8191 2.14427 33.9046 3.60648C22.8892 6.3392 19.9118 19.4322 19.7911 19.9895C19.4022 21.7637 19.2323 23.6049 19.2815 25.4594C19.3039 26.3198 18.6243 27.0375 17.757 27.0598C17.7436 27.0598 17.7302 27.0598 17.7123 27.0598V27.0687Z" fill="white"/>
<path d="M82.9063 62.7546H66.6335C65.7707 62.7546 65.0688 62.0547 65.0688 61.1943C65.0688 60.3339 65.7707 59.634 66.6335 59.634H82.9063C83.7691 59.634 84.471 60.3339 84.471 61.1943C84.471 62.0547 83.7691 62.7546 82.9063 62.7546Z" fill="white"/>
<path d="M95.8752 110H53.6599C52.7837 110 51.9432 109.63 51.3531 108.984C50.763 108.337 50.468 107.468 50.5484 106.599L54.7329 61.0472C54.8089 60.2448 55.4839 59.6296 56.2931 59.6296H60.7949C61.6577 59.6296 62.3596 60.3295 62.3596 61.1899C62.3596 62.0502 61.6577 62.7501 60.7949 62.7501H57.7192L53.6644 106.884H95.8752L91.8159 62.7501H88.5525C87.6896 62.7501 86.9878 62.0502 86.9878 61.1899C86.9878 60.3295 87.6896 59.6296 88.5525 59.6296H93.2465C94.0557 59.6296 94.7307 60.2448 94.8067 61.0472L98.9911 106.599C99.0716 107.468 98.7766 108.337 98.1865 108.984C97.5963 109.63 96.7559 110 95.8797 110H95.8752Z" fill="white"/>
<path d="M82.9063 68.5767C82.0435 68.5767 81.3416 67.8768 81.3416 67.0164V55.3945C81.3416 51.7836 78.3955 48.8413 74.7699 48.8413C71.1443 48.8413 68.1982 51.7791 68.1982 55.3945V67.0164C68.1982 67.8768 67.4963 68.5767 66.6335 68.5767C65.7707 68.5767 65.0688 67.8768 65.0688 67.0164V55.3945C65.0688 50.0628 69.4187 45.7208 74.7699 45.7208C80.1211 45.7208 84.471 50.0584 84.471 55.3945V67.0164C84.471 67.8768 83.7691 68.5767 82.9063 68.5767Z" fill="white"/>
<path d="M18.5437 102.292C17.6809 102.292 16.979 101.592 16.979 100.732V79.3382C16.979 78.4778 17.6809 77.7779 18.5437 77.7779C19.4065 77.7779 20.1084 78.4778 20.1084 79.3382V100.732C20.1084 101.592 19.4065 102.292 18.5437 102.292Z" fill="white"/>
</g>
<defs>
<clipPath id="clip0_5799_254">
<rect width="99" height="110" fill="white"/>
</clipPath>
</defs>
</svg>
