<svg width="124" height="87" viewBox="0 0 124 87" fill="none" xmlns="http://www.w3.org/2000/svg">
<g clip-path="url(#clip0_5799_143)">
<path d="M17.4455 49.3116C17.0038 49.3116 16.5572 49.1455 16.2159 48.8082L8.02014 40.7691C7.68388 40.4369 7.49316 39.9839 7.49316 39.5107C7.49316 39.0375 7.68388 38.5844 8.02014 38.2522L16.2159 30.2132C16.9085 29.5336 18.0226 29.5437 18.7002 30.2434C19.3777 30.938 19.3677 32.0555 18.6701 32.7351L11.7592 39.5107L18.6701 46.2862C19.3627 46.9658 19.3777 48.0833 18.7002 48.778C18.3539 49.1304 17.9022 49.3065 17.4455 49.3065V49.3116Z" fill="white"/>
<path d="M36.0853 49.3116C35.6286 49.3116 35.1719 49.1354 34.8306 48.783C34.153 48.0884 34.1631 46.9708 34.8607 46.2913L41.7716 39.5157L34.8607 32.7401C34.1681 32.0606 34.153 30.9431 34.8306 30.2484C35.5081 29.5537 36.6223 29.5386 37.3149 30.2182L45.5106 38.2572C45.8469 38.5895 46.0376 39.0425 46.0376 39.5157C46.0376 39.9889 45.8469 40.4419 45.5106 40.7742L37.3149 48.8132C36.9736 49.1505 36.532 49.3166 36.0853 49.3166V49.3116Z" fill="white"/>
<path d="M21.571 53.7263C21.3452 53.7263 21.1093 53.681 20.8885 53.5853C19.9951 53.2078 19.5786 52.1708 19.955 51.2748L30.4343 26.3774C30.8107 25.4813 31.8446 25.0635 32.7379 25.4411C33.6313 25.8186 34.0478 26.8556 33.6714 27.7516L23.1921 52.649C22.9111 53.3236 22.2586 53.7263 21.571 53.7263Z" fill="white"/>
<path d="M73.5107 86.3959H8.95859C4.02008 86.3959 0 82.3638 0 77.4105V8.98039C0 4.02708 4.02008 0 8.95859 0H97.4253C102.364 0 106.384 4.02708 106.384 8.98039V24.0517C106.384 25.0233 105.596 25.8136 104.627 25.8136C103.659 25.8136 102.871 25.0233 102.871 24.0517V8.98039C102.871 5.97014 100.427 3.52369 97.4253 3.52369H8.95859C5.95734 3.52369 3.51317 5.97518 3.51317 8.98039V77.4105C3.51317 80.4208 5.95734 82.8722 8.95859 82.8722H73.5107C74.4793 82.8722 75.2672 83.6626 75.2672 84.6341C75.2672 85.6056 74.4793 86.3959 73.5107 86.3959Z" fill="white"/>
<path d="M104.141 20.9106H2.2434C1.27477 20.9106 0.486816 20.1203 0.486816 19.1488C0.486816 18.1772 1.27477 17.3869 2.2434 17.3869H104.141C105.109 17.3869 105.897 18.1772 105.897 19.1488C105.897 20.1203 105.109 20.9106 104.141 20.9106Z" fill="white"/>
<path d="M67.3075 41.2776H53.1143C52.1456 41.2776 51.3577 40.4872 51.3577 39.5157C51.3577 38.5442 52.1456 37.7539 53.1143 37.7539H67.3075C68.2761 37.7539 69.0641 38.5442 69.0641 39.5157C69.0641 40.4872 68.2761 41.2776 67.3075 41.2776Z" fill="white"/>
<path d="M60.2059 73.2123H13.1494C12.1808 73.2123 11.3928 72.422 11.3928 71.4504C11.3928 70.4789 12.1808 69.6886 13.1494 69.6886H60.2059C61.1745 69.6886 61.9625 70.4789 61.9625 71.4504C61.9625 72.422 61.1745 73.2123 60.2059 73.2123Z" fill="white"/>
<path d="M39.4881 12.1567H34.8105C33.8419 12.1567 33.054 11.3664 33.054 10.3949C33.054 9.42336 33.8419 8.63305 34.8105 8.63305H39.4881C40.4567 8.63305 41.2447 9.42336 41.2447 10.3949C41.2447 11.3664 40.4567 12.1567 39.4881 12.1567Z" fill="white"/>
<path d="M27.3275 12.1567H22.3137C21.3451 12.1567 20.5571 11.3664 20.5571 10.3949C20.5571 9.42336 21.3451 8.63305 22.3137 8.63305H27.3275C28.2962 8.63305 29.0841 9.42336 29.0841 10.3949C29.0841 11.3664 28.2962 12.1567 27.3275 12.1567Z" fill="white"/>
<path d="M14.6198 12.1567H10.7051C9.73644 12.1567 8.94849 11.3664 8.94849 10.3949C8.94849 9.42336 9.73644 8.63305 10.7051 8.63305H14.6198C15.5884 8.63305 16.3763 9.42336 16.3763 10.3949C16.3763 11.3664 15.5884 12.1567 14.6198 12.1567Z" fill="white"/>
<path d="M92.0903 87C91.9197 87 91.749 86.9748 91.5784 86.9245L85.0589 84.9412C84.1857 84.6744 83.6587 83.7834 83.8494 82.8873L84.7377 78.6841C82.8055 77.5817 81.059 76.2074 79.5282 74.5815L75.3726 76.3735C74.5345 76.731 73.5608 76.3937 73.1292 75.5832L69.9172 69.5577C69.4856 68.7523 69.7465 67.7455 70.5094 67.2472L74.1029 64.9064C73.5106 62.752 73.2447 60.5421 73.3099 58.3121L69.1091 56.6308C68.261 56.2935 67.8143 55.3572 68.0803 54.4813L70.0577 47.9424C70.3237 47.0665 71.212 46.543 72.1054 46.7292L76.2961 47.6202C77.3952 45.6822 78.7653 43.9304 80.3864 42.3951L78.5997 38.227C78.2384 37.3864 78.5797 36.4098 79.3877 35.9769L85.3952 32.7553C86.2032 32.3223 87.202 32.5841 87.6989 33.3492L90.0326 36.9535C92.1807 36.3595 94.3839 36.0927 96.6073 36.1581L98.2835 31.9448C98.6198 31.0941 99.5533 30.6461 100.427 30.9129L106.946 32.8962C107.819 33.163 108.346 34.054 108.156 34.95L107.267 39.1533C109.199 40.2557 110.946 41.6299 112.477 43.2559L116.632 41.4638C117.47 41.1064 118.444 41.4437 118.876 42.2541L122.088 48.2796C122.519 49.0851 122.258 50.0918 121.496 50.5902L117.902 52.9309C118.494 55.0854 118.76 57.2953 118.695 59.5253L122.896 61.2066C123.744 61.5438 124.191 62.4801 123.925 63.356L121.947 69.895C121.681 70.7709 120.798 71.2994 119.9 71.1081L115.709 70.2172C114.605 72.1602 113.235 73.907 111.619 75.4423L113.405 79.6103C113.767 80.451 113.425 81.4275 112.617 81.8604L106.61 85.0821C105.802 85.515 104.803 85.2533 104.306 84.4881L101.972 80.8839C99.8243 81.4779 97.6211 81.7396 95.3977 81.6792L93.7214 85.8926C93.4504 86.5772 92.793 87.005 92.0903 87.005V87ZM87.6236 82.0417L91.0564 83.0837L92.6022 79.1975C92.8883 78.4777 93.616 78.0347 94.3839 78.0951C97.0238 78.3216 99.6436 78.0045 102.158 77.1437C102.921 76.882 103.759 77.1739 104.196 77.8535L106.374 81.2161L109.536 79.5197L107.885 75.6738C107.578 74.959 107.774 74.1285 108.366 73.6301C110.399 71.9136 112.025 69.8346 113.194 67.4435C113.551 66.7186 114.349 66.331 115.137 66.4971L119.046 67.3277L120.085 63.8846L116.211 62.3341C115.493 62.0472 115.046 61.3223 115.112 60.5471C115.337 57.8993 115.016 55.2717 114.163 52.7447C113.902 51.9795 114.193 51.1389 114.871 50.7009L118.223 48.5162L116.532 45.3449L112.698 47.001C111.985 47.3081 111.157 47.1118 110.66 46.5178C108.949 44.4791 106.876 42.8481 104.492 41.6752C103.769 41.3178 103.383 40.5174 103.548 39.7271L104.381 35.8058L100.949 34.7638L99.4027 38.6499C99.1167 39.3697 98.3889 39.8228 97.6211 39.7523C94.9812 39.5258 92.3613 39.8479 89.8419 40.7037C89.079 40.9655 88.2409 40.6735 87.8042 39.9939L85.6261 36.6313L82.4642 38.3277L84.1154 42.1736C84.4216 42.8884 84.2258 43.719 83.6336 44.2173C81.601 45.9339 79.9749 48.0179 78.8055 50.4039C78.4492 51.1288 77.6512 51.5164 76.8632 51.3503L72.9536 50.5147L71.9147 53.9578L75.7892 55.5082C76.5069 55.7952 76.9536 56.52 76.8883 57.2953C76.6625 59.9431 76.9837 62.5707 77.8369 65.0977C78.0978 65.8629 77.8068 66.7035 77.1292 67.1415L73.7766 69.3262L75.468 72.4975L79.3024 70.8413C80.015 70.5343 80.8431 70.7306 81.34 71.3246C83.0514 73.3633 85.1242 74.9943 87.5081 76.1672C88.2308 76.5246 88.6173 77.3249 88.4517 78.1153L87.6236 82.0366V82.0417Z" fill="white"/>
<path d="M95.995 72.1501C94.7303 72.1501 93.4455 71.9639 92.1757 71.5813C88.8031 70.5544 86.0327 68.2741 84.3714 65.1581C82.7102 62.0422 82.3589 58.4631 83.3827 55.0854C84.4066 51.7077 86.6801 48.924 89.7867 47.2578C92.8934 45.5916 96.4568 45.2392 99.8294 46.2661C106.791 48.3854 110.735 55.7851 108.622 62.762C106.896 68.4654 101.651 72.1501 95.995 72.1501ZM95.99 49.2159C94.4191 49.2159 92.8633 49.6035 91.4379 50.3687C89.1594 51.5919 87.4931 53.6306 86.7403 56.1123C85.9925 58.594 86.2485 61.2166 87.4681 63.502C88.6876 65.7874 90.7203 67.4586 93.1945 68.2137C95.6688 68.9637 98.2836 68.707 100.562 67.4838C102.841 66.2605 104.507 64.2218 105.26 61.7402C106.806 56.6207 103.915 51.1892 98.8106 49.6388C97.8821 49.3569 96.9335 49.2159 95.99 49.2159Z" fill="white"/>
</g>
<defs>
<clipPath id="clip0_5799_143">
<rect width="124" height="87" fill="white"/>
</clipPath>
</defs>
</svg>
