<svg width="126" height="101" viewBox="0 0 126 101" fill="none" xmlns="http://www.w3.org/2000/svg">
<g clip-path="url(#clip0_5799_270)">
<path d="M76.2748 66.2796C71.2036 66.2796 66.1324 64.9534 61.6138 62.301C59.537 61.0825 57.6131 59.5948 55.8914 57.887C50.4453 52.4844 47.446 45.3005 47.446 37.6566C47.446 30.0127 50.4453 22.8338 55.8914 17.4312C61.3375 12.0286 68.5743 9.05325 76.2797 9.05325C83.9852 9.05325 91.2219 12.0286 96.668 17.4312C106.825 27.5072 107.93 43.6416 99.2382 54.9655C98.439 56.0078 97.5708 56.9865 96.668 57.8821C94.9415 59.5948 93.0126 61.0776 90.9408 62.2961C86.4172 64.9485 81.346 66.2747 76.2797 66.2747L76.2748 66.2796ZM76.2748 11.9943C69.3636 11.9943 62.8668 14.6663 57.983 19.5159C53.0944 24.3606 50.4009 30.8055 50.4009 37.6615C50.4009 44.5175 53.0944 50.9625 57.983 55.8121C59.532 57.3487 61.2586 58.6797 63.1183 59.7759C71.2332 64.5325 81.3164 64.5325 89.4312 59.7759C91.291 58.6846 93.0225 57.3536 94.5715 55.8121C95.3805 55.0095 96.1599 54.1237 96.8802 53.1891C104.679 43.0299 103.688 28.5544 94.5715 19.511C89.6828 14.6614 83.186 11.9894 76.2748 11.9894V11.9943Z" fill="white"/>
<path d="M119.429 87.8556C117.663 87.8556 116.006 87.1754 114.753 85.9324L90.4524 61.8263C89.8752 61.2538 89.8752 60.324 90.4524 59.7514C91.0296 59.1789 91.9669 59.1789 92.544 59.7514L116.844 83.8575C117.545 84.5524 118.487 84.9195 119.459 84.9195C120.445 84.9097 121.373 84.5182 122.058 83.8135C123.435 82.3992 123.356 80.0601 121.881 78.6018L97.7089 54.6229C97.1318 54.0503 97.1318 53.1205 97.7089 52.548C98.2861 51.9754 99.2234 51.9754 99.8005 52.548L123.972 76.5269C126.582 79.1156 126.676 83.2997 124.185 85.859C122.941 87.1363 121.269 87.8459 119.483 87.8605H119.424L119.429 87.8556Z" fill="white"/>
<path d="M7.37005 62.5066C6.55117 62.5066 5.89014 61.8508 5.89014 61.0385V1.46809C5.89014 0.655749 6.55117 0 7.37005 0H103.53C104.349 0 105.01 0.655749 105.01 1.46809V13.0269C105.01 13.8392 104.349 14.495 103.53 14.495C102.711 14.495 102.05 13.8392 102.05 13.0269V2.93619H8.84997V61.0385C8.84997 61.8508 8.18894 62.5066 7.37005 62.5066Z" fill="white"/>
<path d="M91.7547 62.5066H90.186C89.3671 62.5066 88.7061 61.8508 88.7061 61.0385C88.7061 60.2261 89.3671 59.5704 90.186 59.5704H91.7547C92.5736 59.5704 93.2346 60.2261 93.2346 61.0385C93.2346 61.8508 92.5736 62.5066 91.7547 62.5066Z" fill="white"/>
<path d="M60.3904 71.0558H3.80832C1.70684 71.0558 0 69.3626 0 67.2779V63.3483C0 61.2636 1.70684 59.5704 3.80832 59.5704H48.3636C49.1825 59.5704 49.8436 60.2261 49.8436 61.0385C49.8436 61.8508 49.1825 62.5066 48.3636 62.5066H3.80832C3.33968 62.5066 2.95983 62.8834 2.95983 63.3483V67.2779C2.95983 67.7428 3.33968 68.1196 3.80832 68.1196H60.3904C61.2093 68.1196 61.8703 68.7753 61.8703 69.5877C61.8703 70.4 61.2093 71.0558 60.3904 71.0558Z" fill="white"/>
<path d="M91.7547 62.5066H90.186C89.3671 62.5066 88.7061 61.8508 88.7061 61.0385C88.7061 60.2261 89.3671 59.5704 90.186 59.5704H91.7547C92.5736 59.5704 93.2346 60.2261 93.2346 61.0385C93.2346 61.8508 92.5736 62.5066 91.7547 62.5066Z" fill="white"/>
<path d="M15.2184 101C14.9816 101 14.7448 100.946 14.5228 100.829C13.8026 100.447 13.5313 99.5564 13.9161 98.8419L30.0373 68.8977C30.4221 68.1832 31.3199 67.9141 32.0401 68.2958C32.7603 68.6775 33.0317 69.5681 32.6469 70.2826L16.5257 100.227C16.2593 100.721 15.7462 101.005 15.2184 101.005V101Z" fill="white"/>
<path d="M95.6815 101C95.1537 101 94.6407 100.716 94.3743 100.222L82.6583 78.4648C82.2735 77.7503 82.5448 76.8597 83.265 76.4779C83.9853 76.0962 84.8831 76.3654 85.2679 77.0799L96.9839 98.837C97.3686 99.5515 97.0973 100.442 96.3771 100.824C96.1551 100.941 95.9183 101 95.6815 101Z" fill="white"/>
<path d="M88.9921 89.5636H22.9977C22.1789 89.5636 21.5178 88.9078 21.5178 88.0955C21.5178 87.2831 22.1789 86.6274 22.9977 86.6274H88.9872C89.8061 86.6274 90.4671 87.2831 90.4671 88.0955C90.4671 88.9078 89.8061 89.5636 88.9872 89.5636H88.9921Z" fill="white"/>
<path d="M27.6596 49.8761C18.9232 49.8761 11.8196 42.8292 11.8196 34.1626C11.8196 25.4959 18.9232 18.4491 27.6596 18.4491C36.396 18.4491 43.4996 25.4959 43.4996 34.1626C43.4996 42.8292 36.396 49.8761 27.6596 49.8761ZM27.6596 21.3853C20.556 21.3853 14.7794 27.1157 14.7794 34.1626C14.7794 41.2094 20.556 46.9399 27.6596 46.9399C34.7632 46.9399 40.5398 41.2094 40.5398 34.1626C40.5398 27.1157 34.7632 21.3853 27.6596 21.3853Z" fill="white"/>
<path d="M27.6595 35.6307H13.3339C12.515 35.6307 11.854 34.9749 11.854 34.1626C11.854 33.3502 12.515 32.6945 13.3339 32.6945H26.1796V19.9172C26.1796 19.1048 26.8406 18.4491 27.6595 18.4491C28.4784 18.4491 29.1394 19.1048 29.1394 19.9172V34.1626C29.1394 34.9749 28.4784 35.6307 27.6595 35.6307Z" fill="white"/>
<path d="M90.4919 53.2331H62.0627C61.2438 53.2331 60.5828 52.5774 60.5828 51.765V23.5629C60.5828 22.7506 61.2438 22.0948 62.0627 22.0948C62.8816 22.0948 63.5426 22.7506 63.5426 23.5629V50.2969H90.4919C91.3107 50.2969 91.9718 50.9527 91.9718 51.765C91.9718 52.5774 91.3107 53.2331 90.4919 53.2331Z" fill="white"/>
<path d="M66.0043 46.7148C65.6097 46.7148 65.2199 46.5631 64.9289 46.2548C64.3665 45.6675 64.3912 44.7377 64.9881 44.1799L71.7414 37.8426C72.215 37.4021 72.9204 37.3141 73.4877 37.6322L78.1544 40.2454L87.9317 30.2378C88.499 29.6555 89.4363 29.6408 90.0233 30.2036C90.6104 30.7664 90.6252 31.6962 90.0579 32.2785L79.4863 43.0984C79.0177 43.5779 78.2827 43.6856 77.6956 43.3528L72.9846 40.7151L67.0205 46.3086C66.7344 46.5777 66.3693 46.7099 66.0043 46.7099V46.7148Z" fill="white"/>
</g>
<defs>
<clipPath id="clip0_5799_270">
<rect width="126" height="101" fill="white"/>
</clipPath>
</defs>
</svg>
