<svg width="112" height="83" viewBox="0 0 112 83" fill="none" xmlns="http://www.w3.org/2000/svg">
<g clip-path="url(#clip0_5799_253)">
<path d="M108.087 28.9057H3.9131C1.75588 28.9057 0 27.1614 0 25.0184V3.88732C0 1.74431 1.75588 0 3.9131 0H108.087C110.244 0 112 1.74431 112 3.88732V25.0184C112 27.1614 110.244 28.9057 108.087 28.9057ZM3.9131 3.48862C3.69236 3.48862 3.51176 3.66803 3.51176 3.88732V25.0184C3.51176 25.2377 3.69236 25.4171 3.9131 25.4171H108.087C108.308 25.4171 108.488 25.2377 108.488 25.0184V3.88732C108.488 3.66803 108.308 3.48862 108.087 3.48862H3.9131Z" fill="white"/>
<path d="M44.1227 84.3149H3.9131C1.75588 84.3149 0 82.5706 0 80.4276V39.6207C0 37.4777 1.75588 35.7334 3.9131 35.7334H44.1227C46.28 35.7334 48.0358 37.4777 48.0358 39.6207V80.4276C48.0358 82.5706 46.28 84.3149 44.1227 84.3149ZM3.9131 39.222C3.69236 39.222 3.51176 39.4015 3.51176 39.6207V80.4276C3.51176 80.6469 3.69236 80.8263 3.9131 80.8263H44.1227C44.3435 80.8263 44.5241 80.6469 44.5241 80.4276V39.6207C44.5241 39.4015 44.3435 39.222 44.1227 39.222H3.9131Z" fill="white"/>
<path d="M108.087 84.3149H55.2952C53.138 84.3149 51.3821 82.5706 51.3821 80.4276V39.6207C51.3821 37.4777 53.138 35.7334 55.2952 35.7334H108.087C110.244 35.7334 112 37.4777 112 39.6207V80.4276C112 82.5706 110.244 84.3149 108.087 84.3149ZM55.3002 39.222C55.0795 39.222 54.8989 39.4015 54.8989 39.6207V80.4276C54.8989 80.6469 55.0795 80.8263 55.3002 80.8263H108.092C108.313 80.8263 108.493 80.6469 108.493 80.4276V39.6207C108.493 39.4015 108.313 39.222 108.092 39.222H55.3002Z" fill="white"/>
<path d="M14.8397 20.7274C12.8982 20.7274 10.9618 19.9948 9.4818 18.5246C6.5269 15.5891 6.5269 10.8147 9.4818 7.8793C12.4367 4.94388 17.2428 4.94388 20.1977 7.8793C23.1526 10.8147 23.1526 15.5891 20.1977 18.5246C18.7227 19.9898 16.7812 20.7274 14.8397 20.7274ZM14.8397 9.17009C13.8013 9.17009 12.7578 9.56381 11.9651 10.3512C10.3798 11.9261 10.3798 14.4877 11.9651 16.0626C13.5504 17.6375 16.1291 17.6375 17.7144 16.0626C18.4819 15.3001 18.9033 14.2884 18.9033 13.2069C18.9033 12.1254 18.4819 11.1138 17.7144 10.3512C16.9468 9.58873 15.8832 9.17009 14.8397 9.17009Z" fill="white"/>
<path d="M24.9838 25.0284C24.5323 25.0284 24.0858 24.8589 23.7446 24.515L17.7145 18.5246C17.0271 17.8418 17.0271 16.7404 17.7145 16.0576C18.4018 15.3749 19.5105 15.3749 20.1978 16.0576L26.228 22.0481C26.9153 22.7309 26.9153 23.8323 26.228 24.515C25.8868 24.8539 25.4353 25.0284 24.9838 25.0284Z" fill="white"/>
<path d="M31.315 28.4073C30.3467 28.4073 29.5591 27.6249 29.5591 26.663V2.24268C29.5591 1.28082 30.3467 0.498375 31.315 0.498375C32.2832 0.498375 33.0708 1.28082 33.0708 2.24268V26.663C33.0708 27.6249 32.2832 28.4073 31.315 28.4073Z" fill="white"/>
<path d="M35.9805 46.7226H12.0554C11.0872 46.7226 10.2996 45.9401 10.2996 44.9783C10.2996 44.0164 11.0872 43.234 12.0554 43.234H35.9805C36.9488 43.234 37.7364 44.0164 37.7364 44.9783C37.7364 45.9401 36.9488 46.7226 35.9805 46.7226Z" fill="white"/>
<path d="M35.9805 61.4097H12.0554C11.0872 61.4097 10.2996 60.6272 10.2996 59.6654C10.2996 58.7035 11.0872 57.9211 12.0554 57.9211H35.9805C36.9488 57.9211 37.7364 58.7035 37.7364 59.6654C37.7364 60.6272 36.9488 61.4097 35.9805 61.4097Z" fill="white"/>
<path d="M35.9805 76.0968H12.0554C11.0872 76.0968 10.2996 75.3143 10.2996 74.3524C10.2996 73.3906 11.0872 72.6081 12.0554 72.6081H35.9805C36.9488 72.6081 37.7364 73.3906 37.7364 74.3524C37.7364 75.3143 36.9488 76.0968 35.9805 76.0968Z" fill="white"/>
<path d="M87.3677 74.0883C86.9563 74.0883 86.545 73.9487 86.2139 73.6597C85.4814 73.0268 85.4061 71.9253 86.0433 71.1977L96.1371 59.6952C97.2508 58.4194 98.8712 57.6868 100.572 57.6868C102.278 57.6868 103.893 58.4194 105.017 59.6952L106.442 61.3199C107.079 62.0476 107.003 63.149 106.271 63.7819C105.539 64.4149 104.43 64.3401 103.793 63.6125L102.368 61.9878C101.911 61.4645 101.269 61.1754 100.572 61.1754C99.8746 61.1754 99.2375 61.4645 98.7809 61.9828L88.6871 73.4853C88.341 73.879 87.8543 74.0833 87.3627 74.0833L87.3677 74.0883Z" fill="white"/>
<path d="M60.7434 84.3199C60.3321 84.3199 59.9257 84.1804 59.5896 83.8913C58.8571 83.2584 58.7819 82.157 59.419 81.4294L74.0982 64.6939C75.2169 63.4181 76.8373 62.6855 78.538 62.6855C80.2387 62.6855 81.8591 63.4181 82.9779 64.6939L97.657 81.4294C98.2942 82.157 98.2189 83.2584 97.4865 83.8913C96.754 84.5243 95.6453 84.4495 95.0082 83.7219L80.329 66.9865C79.8725 66.4632 79.2354 66.1741 78.533 66.1741C77.8307 66.1741 77.1985 66.4632 76.737 66.9865L62.0578 83.7219C61.7117 84.1156 61.2251 84.3199 60.7334 84.3199H60.7434Z" fill="white"/>
<path d="M69.548 74.2827C69.0564 74.2827 68.5698 74.0783 68.2236 73.6846L56.7 60.5525C56.0629 59.8248 56.1381 58.7234 56.8706 58.0905C57.603 57.4576 58.7118 57.5323 59.3489 58.2599L70.8725 71.3871C71.5096 72.1147 71.4343 73.2161 70.7019 73.8491C70.3708 74.1381 69.9594 74.2777 69.548 74.2777V74.2827Z" fill="white"/>
<path d="M87.1116 59.8099C81.864 59.8099 77.5947 55.5687 77.5947 50.3557C77.5947 45.1427 81.864 40.9016 87.1116 40.9016C92.3592 40.9016 96.6285 45.1427 96.6285 50.3557C96.6285 55.5687 92.3592 59.8099 87.1116 59.8099ZM87.1116 44.3902C83.8005 44.3902 81.1065 47.0665 81.1065 50.3557C81.1065 53.645 83.8005 56.3213 87.1116 56.3213C90.4227 56.3213 93.1167 53.645 93.1167 50.3557C93.1167 47.0665 90.4227 44.3902 87.1116 44.3902Z" fill="white"/>
</g>
<defs>
<clipPath id="clip0_5799_253">
<rect width="112" height="83" fill="white"/>
</clipPath>
</defs>
</svg>
