<svg width="1317" height="936" viewBox="0 0 1317 936" fill="none" xmlns="http://www.w3.org/2000/svg">
<path d="M211.506 556.061L324.032 491.335L437.892 556.235L324.972 618.436L211.506 556.061Z" fill="#38EFF5"/>
<path d="M435.192 682.101L321.931 747.524V874.997L435.192 809.574V682.101Z" fill="#4A7EFF"/>
<path d="M98.7905 618.467L211.574 683.564V811.037L98.7905 745.947V618.467Z" fill="#57FFBE"/>
<path d="M98.7905 618.436V490.963L211.574 556.061" fill="#57FFBE"/>
<path d="M211.779 936V811.697L321.749 875.172" fill="#4A7EFF"/>
<path d="M1.21973 562.575L321.931 747.524" stroke="#61CAFF" stroke-miterlimit="10"/>
<path d="M1.72021 303.307L211.331 424.698" stroke="#61CAFF" stroke-miterlimit="10"/>
<path d="M211.332 683.443V424.698" stroke="#61CAFF" stroke-miterlimit="10"/>
<path d="M1.00002 563L1 171" stroke="#61CAFF" stroke-miterlimit="10"/>
<path d="M2 303L233 171" stroke="#61CAFF" stroke-miterlimit="10"/>
<path d="M1316 171L212 811" stroke="#61CAFF" stroke-miterlimit="10"/>
</svg>
