<svg width="29" height="29" viewBox="0 0 29 29" fill="none" xmlns="http://www.w3.org/2000/svg">
<g clip-path="url(#clip0_5800_66)">
<path d="M7.50532 7.67163C7.13589 7.36482 6.66 7.21679 6.18172 7.25991C5.70344 7.30303 5.2617 7.53379 4.95311 7.90173L0.422132 13.3389C0.149442 13.6643 0 14.0754 0 14.5C0 14.9245 0.149442 15.3356 0.422132 15.661L4.95311 21.0982C5.10511 21.2823 5.29202 21.4346 5.50308 21.5463C5.71414 21.658 5.9452 21.7269 6.18296 21.749C6.42073 21.7711 6.66052 21.7459 6.88854 21.6751C7.11657 21.6042 7.32833 21.4889 7.51166 21.3359C7.69498 21.1829 7.84626 20.9951 7.95678 20.7835C8.06731 20.5718 8.13491 20.3404 8.15569 20.1025C8.17647 19.8646 8.15003 19.6249 8.07789 19.3973C8.00574 19.1697 7.88931 18.9585 7.7353 18.7761L4.1708 14.5L7.73539 10.2239C8.04322 9.8549 8.1919 9.37874 8.14876 8.90014C8.10562 8.42153 7.87418 7.97965 7.50532 7.67163Z" fill="#00CEFF"/>
<path d="M16.6663 3.66097C16.1955 3.57183 15.7086 3.67097 15.3101 3.93707C14.9116 4.20318 14.6334 4.615 14.5354 5.08402L10.9106 23.2079C10.8636 23.4413 10.8631 23.6816 10.9093 23.9152C10.9554 24.1488 11.0472 24.3709 11.1794 24.5689C11.3117 24.7669 11.4817 24.9368 11.6798 25.0689C11.8778 25.201 12.1 25.2927 12.3336 25.3387C12.4512 25.3629 12.5711 25.3748 12.6911 25.3741C13.1097 25.3735 13.5152 25.2278 13.8385 24.962C14.1618 24.6961 14.383 24.3265 14.4646 23.9159L18.0894 5.79196C18.1364 5.55855 18.1369 5.31816 18.0907 5.08458C18.0446 4.85099 17.9528 4.62882 17.8206 4.43082C17.6884 4.23281 17.5183 4.06288 17.3203 3.93076C17.1222 3.79865 16.9 3.70696 16.6663 3.66097Z" fill="#00CEFF"/>
<path d="M28.5779 13.3388L24.047 7.90161C23.8949 7.71745 23.708 7.56514 23.497 7.45346C23.2859 7.34177 23.0549 7.2729 22.8171 7.25081C22.5793 7.22872 22.3395 7.25385 22.1115 7.32474C21.8835 7.39564 21.6717 7.5109 21.4884 7.66391C21.3051 7.81693 21.1538 8.00466 21.0433 8.21634C20.9328 8.42801 20.8652 8.65944 20.8444 8.89732C20.8236 9.13521 20.85 9.37486 20.9222 9.60249C20.9943 9.83012 21.1107 10.0412 21.2648 10.2237L24.8293 14.4999L21.2647 18.776C21.1107 18.9585 20.9942 19.1696 20.9221 19.3973C20.8499 19.6249 20.8235 19.8645 20.8443 20.1024C20.8651 20.3403 20.9327 20.5717 21.0432 20.7834C21.1537 20.9951 21.305 21.1828 21.4883 21.3358C21.6716 21.4888 21.8834 21.6041 22.1114 21.675C22.3395 21.7459 22.5792 21.771 22.817 21.7489C23.0548 21.7268 23.2858 21.658 23.4969 21.5463C23.708 21.4346 23.8949 21.2823 24.0469 21.0981L28.5779 15.6609C28.8506 15.3355 29.0001 14.9244 29.0001 14.4998C29.0001 14.0753 28.8506 13.6642 28.5779 13.3388Z" fill="#00CEFF"/>
</g>
<defs>
<clipPath id="clip0_5800_66">
<rect width="29" height="29" fill="white"/>
</clipPath>
</defs>
</svg>
