<?xml version="1.0" encoding="utf-8"?>
<!-- Generator: Adobe Illustrator 28.1.0, SVG Export Plug-In . SVG Version: 6.00 Build 0)  -->
<svg version="1.1" id="圖層_1" xmlns="http://www.w3.org/2000/svg" xmlns:xlink="http://www.w3.org/1999/xlink" x="0px" y="0px"
	 viewBox="0 0 36 36" style="enable-background:new 0 0 36 36;" xml:space="preserve">
<style type="text/css">
	.st0{fill:#64DCF0;}
	.st1{fill:#005087;}
</style>
<circle id="Ellipse_185" class="st0" cx="18" cy="18" r="18"/>
<rect x="17.1" y="10.6" class="st1" width="2.1" height="14.9"/>
<g>
	<g id="Group_4011" transform="translate(13.329 9.015)">
		<path id="Path_1270_00000036241821144297859490000016640854866957171885_" class="st1" d="M4.7,3.9c-0.5,0.6-1,1.2-1.5,1.8
			C2,6.7,0.8,7.4-0.5,8.1l-1-2c1.1-0.5,2.2-1.2,3.2-1.9c0.8-0.9,1.5-1.8,2.1-2.7l1.8,0"/>
	</g>
	<g id="Group_4011_00000146481922110851495600000008053096666861410997_" transform="translate(13.329 9.015)">
		<path id="Path_1270_00000040556258055644691610000013726282790536645050_" class="st1" d="M4,1.4l1.8,0c0.7,0.9,1.4,1.9,2.1,2.7
			c1,0.7,2.1,1.4,3.2,1.9l-1,2C8.8,7.4,7.5,6.7,6.4,5.8c-0.5-0.6-1-1.2-1.5-1.8"/>
	</g>
</g>
</svg>
